<svg xmlns="http://www.w3.org/2000/svg" xmlns:xlink="http://www.w3.org/1999/xlink" viewBox="0 0 823.91 373.09"><defs><style>.cls-1{fill:none;}</style><symbol id="Arrow_25" data-name="Arrow 25" viewBox="0 0 45.72 26.28"><rect class="cls-1" width="45.72" height="26.28"/></symbol><symbol id="Arrow_2" data-name="Arrow 2" viewBox="0 0 45.72 26.28"><rect class="cls-1" width="45.72" height="26.28"/><polygon points="0 16.31 22.93 16.31 22.93 26.28 45.72 13.14 22.93 0 22.93 9.97 0 9.97 0 16.31"/></symbol></defs><title>Asset 6</title><g id="Layer_2" data-name="Layer 2"><g id="Layer_1-2" data-name="Layer 1"><path d="M100,135.36a52.45,52.45,0,0,1-23-5.58q-11.52-5.58-22.86-11.52-3.6,0-9.27,5.49a43.06,43.06,0,0,0-8.73,11.61H33.07L59.71,69.84H63q-.18,2.52-.36,7.47t-.18,7.11a77.15,77.15,0,0,0,1.26,14.94,69.15,69.15,0,0,0,5,14.49A28.29,28.29,0,0,0,81.22,127a41.74,41.74,0,0,0,20.61,5q10.8,0,17.46-6.3t6.66-14.4a16.21,16.21,0,0,0-3.6-10.08q-3.6-4.68-14.49-10.71T81.85,76Q64.21,63.54,64.21,45.18,64.21,27,81,13.5T121.09,0a62.9,62.9,0,0,1,22,3.6q8.82,4,17.82,7.92a9.77,9.77,0,0,0,7.2-2.88A44.82,44.82,0,0,0,174.37,0h3.42L155.65,54.72h-3.24q.36-2.34.54-5.58t.18-7.74a103.11,103.11,0,0,0-.63-12.33,42.75,42.75,0,0,0-3.15-11.16,22.84,22.84,0,0,0-9-10.26Q133.87,3.42,122,3.42a30.43,30.43,0,0,0-17,5.13q-7.83,5.13-7.83,13.77a17.49,17.49,0,0,0,3.51,10.44,26.37,26.37,0,0,0,8.19,7.56q4.68,2.7,16,8.91t18.36,10.62a39.16,39.16,0,0,1,12.15,12.51,32.64,32.64,0,0,1,5.13,17.82q0,19.62-17.1,32.4T100,135.36Z"/><path d="M232.69,49.14q-4,0-8.82,4.86T213.79,68.4a98.85,98.85,0,0,0-8.46,21.33,80.23,80.23,0,0,0-3.24,21q0,10.44,3.15,14.49a10.67,10.67,0,0,0,8.93,4.05,20.57,20.57,0,0,0,8.11-1.53,41.08,41.08,0,0,0,8-4.77,45.21,45.21,0,0,0,7.4-6.66,96.08,96.08,0,0,0,6.22-8.1l2.52,1.8Q236.17,124.2,226,129.6a45.69,45.69,0,0,1-21.72,5.4A43.5,43.5,0,0,1,179,126.81q-11.79-8.19-11.79-23.85,0-21.42,19-39.15t45.54-17.73q15.69,0,21.91,5.76t6.23,12.78q0,7.74-4.62,12.51a15.78,15.78,0,0,1-11.86,4.77,16,16,0,0,1-10.86-3.78,11.93,11.93,0,0,1-4.34-9.36q0-4.68,4.23-10.08t4.23-7.38a1.74,1.74,0,0,0-1-1.62A6.39,6.39,0,0,0,232.69,49.14Z"/><path d="M359.05,62.64a19.85,19.85,0,0,1-4.86,13.5A15.56,15.56,0,0,1,342,81.72,17.83,17.83,0,0,1,330.7,78c-3.19-2.46-4.77-5.91-4.77-10.35a11.74,11.74,0,0,1,1.53-5.94c1-1.8,2.13-3.72,3.33-5.76,0-1.08-.61-1.62-1.8-1.62q-2.7,0-7.29,6.93A138,138,0,0,0,312.07,79L286,133.2h-35.1l31-68.4a26,26,0,0,0,1.62-4.23,16,16,0,0,0,.72-4.41,4,4,0,0,0-.54-2.34,2.12,2.12,0,0,0-1.8-.72c-1.44,0-3.13.78-5,2.34a34.52,34.52,0,0,0-5.49,5.67,114.36,114.36,0,0,0-6.57,9.63c-2.64,4.2-4.75,7.8-6.3,10.8l-2.34-.9q11.34-21.78,19.62-28.17a29.57,29.57,0,0,1,18.54-6.39q8.64,0,12.87,5.4t4.23,14.76a29.59,29.59,0,0,1-.9,7.2,49.06,49.06,0,0,1-1.62,5.4l.54.18q8.26-17.1,14.67-25t18.09-7.92q8.44,0,12.69,5.22A17.7,17.7,0,0,1,359.05,62.64Z"/><path d="M358,75.24q10.06-18,17.54-23.58a26.64,26.64,0,0,1,16.29-5.58,19.82,19.82,0,0,1,13.77,5.31q5.85,5.31,5.86,15.93a31.57,31.57,0,0,1-2.17,10.62q-2.16,5.94-5.94,13.77t-10.44,19.62q-6.66,11.79-6.66,15.21a2.87,2.87,0,0,0,3.25,3.24q2,0,5.21-2.25a31,31,0,0,0,6.3-6q3.06-3.78,6.4-8.73c2.21-3.3,4.05-6.27,5.48-8.91l2.34,1.26Q405.48,121,398.91,128T379,135q-9.7,0-14.76-5.67t-5-14.31a29.49,29.49,0,0,1,1.71-10.35q1.71-4.59,7.2-15.39T377.76,70q4.14-8.46,5.4-11.52a13.67,13.67,0,0,0,1.27-4.5,2.23,2.23,0,0,0-2.53-2.52q-1.26,0-4.22,2.25a53.63,53.63,0,0,0-7.75,7.92,88.15,88.15,0,0,0-9.63,14.67Zm36.71-58.5a15.71,15.71,0,0,1,5-12.06A17.11,17.11,0,0,1,411.78,0,17.34,17.34,0,0,1,424,4.68a15.71,15.71,0,0,1,5,12.06,15.66,15.66,0,0,1-5.13,12,17.23,17.23,0,0,1-12.15,4.77,16.84,16.84,0,0,1-12.15-4.77A15.93,15.93,0,0,1,394.68,16.74Z"/><path d="M498.18,46a23,23,0,0,1,16.74,7.2q7.2,7.2,7.2,21.07,0,22-16.65,41.33T460.38,135a39.36,39.36,0,0,1-25.2-8.73,27.9,27.9,0,0,1-11-23,29.32,29.32,0,0,1,1.8-9.9q2.7-6.3,4.77-11.61t7.11-17.28q5-12,9.09-21.51T455.16,23q4.14-10.53,4.14-13.59,0-3.6-4.41-4a93.3,93.3,0,0,0-9.45-.45V2h53.1L475.32,57.64A51.06,51.06,0,0,1,484.5,49Q488.82,46,498.18,46Zm-5.76,11.78a9.21,9.21,0,0,0-1.08-5,3.81,3.81,0,0,0-3.42-1.62,8.48,8.48,0,0,0-4.41,1.53,27.78,27.78,0,0,0-5.85,5.57q-3.42,4-8.1,14T457.5,100.91q-7.38,18.61-7.38,25.45,0,5.76,5.4,5.76,4.14,0,8.19-5.49T474,109.09A265.46,265.46,0,0,0,486.3,80.67Q492.42,64.31,492.42,57.82Z"/><path d="M604.56,46a23,23,0,0,1,16.74,7.2q7.2,7.2,7.2,21.07,0,22-16.65,41.33T566.76,135a39.36,39.36,0,0,1-25.2-8.73,27.9,27.9,0,0,1-11-23,29.32,29.32,0,0,1,1.8-9.9q2.7-6.3,4.77-11.61t7.11-17.28q5-12,9.09-21.51T561.54,23q4.14-10.53,4.14-13.59,0-3.6-4.41-4a93.3,93.3,0,0,0-9.45-.45V2h53.1L581.7,57.64A51.06,51.06,0,0,1,590.88,49Q595.2,46,604.56,46ZM598.8,57.82a9.21,9.21,0,0,0-1.08-5,3.81,3.81,0,0,0-3.42-1.62,8.48,8.48,0,0,0-4.41,1.53A27.78,27.78,0,0,0,584,58.27q-3.42,4-8.1,14t-12.06,28.61q-7.38,18.61-7.38,25.45,0,5.76,5.4,5.76,4.14,0,8.19-5.49t10.26-17.54a265.46,265.46,0,0,0,12.33-28.42Q598.8,64.31,598.8,57.82Z"/><path d="M668.28,21.78q2.16-5.4,3-7.92a14.91,14.91,0,0,0,.81-4.5,3.56,3.56,0,0,0-3-3.69q-3-.81-10.89-.81V2h53.1q-6.12,14.94-14.94,36.63l-21.24,52.2q-12.42,30.51-13,32.31a11.36,11.36,0,0,0-.63,3.78,3.21,3.21,0,0,0,.72,2.34,2.44,2.44,0,0,0,1.8.72q4.86,0,9.81-5.94a137.33,137.33,0,0,0,8.46-11.16q3.51-5.22,6.39-9.9l2.52,1.26q-9.72,16-16.83,23.4T656,135a21.39,21.39,0,0,1-16-6.48,20.61,20.61,0,0,1-6.3-14.76,29.68,29.68,0,0,1,.9-7.56,60.49,60.49,0,0,1,2.7-7.74Z"/><path d="M733.63,93.24a65.59,65.59,0,0,0-2,8.9,58.11,58.11,0,0,0-.9,9.08q0,10.07,2.79,14.2a9.27,9.27,0,0,0,8.21,4.14,25.37,25.37,0,0,0,7.39-1,37.19,37.19,0,0,0,7.57-3.5,44.84,44.84,0,0,0,9.1-7.36,54.87,54.87,0,0,0,7.66-9.51L776,110a73.94,73.94,0,0,1-17.85,17.84q-10.27,7.2-24.88,7.21a43,43,0,0,1-24.93-8q-11.61-8-11.61-23.5,0-21.61,19.57-39.53a66,66,0,0,1,46.08-17.92q12.43,0,20.37,5.67t7.94,13q0,14.22-16.61,21.33T733.63,93.24Zm.53-2.16Q746.76,89.64,757,77T767.28,54.7a9.47,9.47,0,0,0-.72-4.13c-.48-1-1.56-1.43-3.24-1.43q-4,0-7.92,4.3a70.42,70.42,0,0,0-8.46,12q-4.5,7.71-7.65,14.07T734.16,91.08Z"/><use width="45.72" height="26.28" transform="translate(1 260.66) scale(4.09 4.02)" xlink:href="#Arrow_25"/><use width="45.72" height="26.28" transform="translate(823.91 366.07) rotate(180) scale(4.09 4.02)" xlink:href="#Arrow_25"/><text/><path d="M440.13,189.64a67,67,0,0,1-8.51,11.23q-3.83,3.82-10.66,3.83-4.68,0-7.07-3a10.87,10.87,0,0,1-2.38-7,16.3,16.3,0,0,1,.71-5.13,42.85,42.85,0,0,1,1.94-4.73q1.21-2.55,5.09-10.16c2.57-5.07,3.87-8.36,3.87-9.86a2.12,2.12,0,0,0-.41-1.44,1.68,1.68,0,0,0-1.3-.45,4.42,4.42,0,0,0-2.61,1.26,25,25,0,0,0-3.79,4.27,44.27,44.27,0,0,0-4.31,7.29c-1.39,2.85-3.21,6.73-5.49,11.65s-4,8.54-5,10.88-1.93,4.17-2.52,5.49H380.1l4.09-9.13q3.65-8.15,7.2-16t4-8.86c.3-.66.61-1.47.94-2.43a7.94,7.94,0,0,0,.5-2.52,2.29,2.29,0,0,0-.41-1.48,1.47,1.47,0,0,0-1.21-.5,4.47,4.47,0,0,0-2.7,1.26,19.53,19.53,0,0,0-3.11,3.33,52.09,52.09,0,0,0-3.1,4.58,44.33,44.33,0,0,0-2.52,4.68l-13.23,27.08H353l15.57-34.18c.12-.3.4-1,.85-2.12a8,8,0,0,0,.68-2.92,2,2,0,0,0-.36-1.3,1.34,1.34,0,0,0-1.08-.41A5.2,5.2,0,0,0,366.1,164a19.3,19.3,0,0,0-3.33,3.06,39.43,39.43,0,0,0-3.28,4.31q-1.62,2.43-3.51,5.84l-1.08-.54q4.75-9.56,9.13-13a14.35,14.35,0,0,1,9.05-3.48,9.54,9.54,0,0,1,7.11,3,10,10,0,0,1,2.88,7.22,25.82,25.82,0,0,1-.18,3.33,22.1,22.1,0,0,1-.54,2.62l.27.09q5-9.93,8.86-13.08a13,13,0,0,1,8.42-3.16,11.42,11.42,0,0,1,7.69,2.58,8.49,8.49,0,0,1,3,6.8,13.88,13.88,0,0,1-.45,3.61c-.49,1.26-.81,2.17-1,2.71q4.57-8.47,7.87-12.09t9.95-3.61a10.48,10.48,0,0,1,7.29,2.62c1.91,1.74,2.88,4.44,2.88,8.09a14.36,14.36,0,0,1-1,5.41q-.94,2.34-3,6.57T428,193.14c-2.13,4-3.19,6.47-3.19,7.38a1.92,1.92,0,0,0,.35,1.25,1.2,1.2,0,0,0,1,.46q2.6,0,5.49-3.2a54.89,54.89,0,0,0,4.41-5.43c1-1.5,2-3,3-4.59Z"/><path d="M460.47,183.8a32.89,32.89,0,0,0-1,4.45,29.13,29.13,0,0,0-.46,4.54q0,5,1.4,7.1a4.63,4.63,0,0,0,4.1,2.07,12.69,12.69,0,0,0,3.7-.5,18.45,18.45,0,0,0,3.78-1.75,22,22,0,0,0,4.55-3.68,27,27,0,0,0,3.84-4.75l1.26.9a37.08,37.08,0,0,1-8.93,8.92,21.11,21.11,0,0,1-12.44,3.6,21.46,21.46,0,0,1-12.46-4q-5.81-4-5.81-11.75,0-10.8,9.79-19.76a33,33,0,0,1,23-9A17.12,17.12,0,0,1,485,163.05q4,2.83,4,6.53,0,7.11-8.3,10.66T460.47,183.8Zm.26-1.08q6.3-.72,11.44-7t5.13-11.15a4.73,4.73,0,0,0-.37-2.07c-.24-.47-.78-.71-1.62-.71a5.52,5.52,0,0,0-4,2.15,34.42,34.42,0,0,0-4.22,6c-1.51,2.57-2.78,4.92-3.83,7S461.39,181,460.73,182.72Z"/><path d="M195.73,239.32H316.67V264.9H273.16V370.54H239.32V264.9H195.73Z"/><path d="M431.72,310.6v59.94H400.08v-45.7q0-12.93-.57-17.76a18.48,18.48,0,0,0-2-7.12,12.86,12.86,0,0,0-5-4.78,14.81,14.81,0,0,0-7.21-1.72,18.21,18.21,0,0,0-15.47,7.6q-5.62,7.6-5.62,21.05v48.43H332.75V233.78h31.47v52.74a48.6,48.6,0,0,1,15.11-12.7A38.21,38.21,0,0,1,397,269.73q17.06,0,25.88,10.46T431.72,310.6Z"/><path d="M460.9,233.78h31.46v25.67H460.9Zm0,38.32h31.46v98.44H460.9Z"/><path d="M599.5,275.18v23.91A116.42,116.42,0,0,0,580,292.76a81.07,81.07,0,0,0-17.76-2.11q-9,0-13.31,2.24a7.31,7.31,0,0,0-4.35,6.9,6.44,6.44,0,0,0,3.29,5.8q3.3,2,11.83,3l5.53.79q24.18,3.08,32.52,10.11t8.35,22.06q0,15.73-11.6,23.64t-34.63,7.91a137.43,137.43,0,0,1-20.17-1.54,172.44,172.44,0,0,1-21.4-4.61V343a91,91,0,0,0,19.29,6.86,89.1,89.1,0,0,0,20.08,2.28c6.16,0,10.78-.85,13.89-2.55a8.15,8.15,0,0,0,4.66-7.56,7,7,0,0,0-3.21-6.28q-3.21-2.07-12.79-3.21l-5.53-.7q-21-2.64-29.45-9.76t-8.43-21.62q0-15.64,10.72-23.2t32.87-7.56a134.12,134.12,0,0,1,18.28,1.32A198.77,198.77,0,0,1,599.5,275.18Z"/><use width="45.72" height="26.28" transform="translate(0 258.21) scale(4.22 4.24)" xlink:href="#Arrow_2"/><use width="45.72" height="26.28" transform="translate(820.63 369.39) rotate(180) scale(4.22 4.24)" xlink:href="#Arrow_2"/></g></g></svg>